<svg
      xmlns="http://www.w3.org/2000/svg"
      viewBox="0 0 50 50"
     fill="#ffffff"
      fillRule="evenodd"
    
    >
      <path
        fillRule="evenodd"
        d="M 25 18.820313 L 28.507813 7 L 46 7 L 46 16 L 43 16 L 43 33 L 46 33 L 46 41 L 28.726563 41 L 28.675781 36.972656 L 27.5 41 L 20.5 41 L 19 35.855469 L 19 41 L 4 41 L 4 33 L 6.925781 33 L 6.929688 32.992188 L 6.9375 32.984375 L 6.941406 32.972656 L 6.949219 32.964844 L 6.964844 32.941406 L 6.96875 32.929688 L 6.976563 32.921875 L 6.984375 32.898438 L 6.992188 32.886719 L 6.996094 32.878906 L 7 32.867188 L 7 16 L 4 16 L 4 7 L 21.492188 7 Z M 6 9 L 6 14 L 7 14 L 7.117188 14.003906 L 7.230469 14.007813 L 7.34375 14.015625 L 7.398438 14.019531 L 7.449219 14.027344 L 7.503906 14.035156 L 7.554688 14.039063 L 7.605469 14.050781 L 7.65625 14.058594 L 7.703125 14.066406 L 7.753906 14.078125 L 7.894531 14.113281 L 7.9375 14.125 L 7.984375 14.140625 L 8.027344 14.15625 L 8.066406 14.171875 L 8.109375 14.1875 L 8.148438 14.207031 L 8.191406 14.226563 L 8.230469 14.246094 L 8.265625 14.265625 L 8.304688 14.285156 L 8.375 14.332031 L 8.410156 14.359375 L 8.441406 14.382813 L 8.476563 14.410156 L 8.539063 14.464844 L 8.566406 14.496094 L 8.597656 14.527344 L 8.652344 14.589844 L 8.675781 14.625 L 8.703125 14.660156 L 8.726563 14.695313 L 8.746094 14.734375 L 8.792969 14.8125 L 8.8125 14.855469 L 8.832031 14.894531 L 8.847656 14.941406 L 8.867188 14.984375 L 8.898438 15.078125 L 8.910156 15.125 L 8.925781 15.175781 L 8.9375 15.226563 L 8.945313 15.28125 L 8.957031 15.335938 L 8.972656 15.445313 L 8.988281 15.5625 L 8.992188 15.621094 L 8.996094 15.683594 L 8.996094 15.75 L 9 15.8125 L 9 33.027344 L 8.996094 33.054688 L 8.996094 33.085938 L 8.988281 33.148438 L 8.984375 33.183594 L 8.976563 33.214844 L 8.960938 33.285156 L 8.953125 33.324219 L 8.929688 33.398438 L 8.90625 33.476563 L 8.890625 33.515625 L 8.878906 33.558594 L 8.863281 33.597656 L 8.84375 33.640625 L 8.828125 33.679688 L 8.769531 33.808594 L 8.746094 33.847656 L 8.675781 33.976563 L 8.648438 34.019531 L 8.621094 34.058594 L 8.566406 34.144531 L 8.535156 34.183594 L 8.507813 34.226563 L 8.476563 34.265625 L 8.441406 34.304688 L 8.410156 34.34375 L 8.339844 34.421875 L 8.265625 34.496094 L 8.1875 34.566406 L 8.144531 34.601563 L 8.105469 34.632813 L 8.019531 34.695313 L 7.972656 34.726563 L 7.929688 34.753906 L 7.835938 34.808594 L 7.785156 34.832031 L 7.738281 34.855469 L 7.636719 34.894531 L 7.582031 34.914063 L 7.417969 34.960938 L 7.359375 34.972656 L 7.304688 34.980469 L 7.246094 34.988281 L 7.183594 34.996094 L 7.125 35 L 6 35 L 6 39 L 17 39 L 17 35 L 15 35 L 15 15 L 22 39 L 26 39 L 33 15 L 33 35 L 30.648438 35 L 30.699219 39 L 44 39 L 44 35 L 42.433594 35 L 42.390625 34.996094 L 42.347656 34.996094 L 42.304688 34.988281 L 42.261719 34.984375 L 42.21875 34.976563 L 42.179688 34.972656 L 42.136719 34.960938 L 42.097656 34.953125 L 42.019531 34.929688 L 41.984375 34.914063 L 41.945313 34.902344 L 41.910156 34.886719 L 41.875 34.867188 L 41.839844 34.851563 L 41.769531 34.8125 L 41.738281 34.792969 L 41.613281 34.699219 L 41.585938 34.675781 L 41.554688 34.648438 L 41.527344 34.621094 L 41.5 34.589844 L 41.476563 34.5625 L 41.449219 34.53125 L 41.425781 34.5 L 41.398438 34.46875 L 41.375 34.4375 L 41.351563 34.402344 L 41.332031 34.367188 L 41.308594 34.332031 L 41.289063 34.296875 L 41.269531 34.257813 L 41.25 34.222656 L 41.210938 34.144531 L 41.195313 34.101563 L 41.179688 34.0625 L 41.164063 34.019531 L 41.148438 33.980469 L 41.132813 33.9375 L 41.121094 33.890625 L 41.105469 33.847656 L 41.09375 33.804688 L 41.082031 33.757813 L 41.074219 33.710938 L 41.0625 33.664063 L 41.054688 33.617188 L 41.046875 33.566406 L 41.035156 33.519531 L 41.03125 33.46875 L 41.023438 33.421875 L 41.019531 33.367188 L 41.011719 33.316406 L 41.007813 33.265625 L 41.007813 33.214844 L 41.003906 33.160156 L 41 33.109375 L 41 15.925781 L 41.003906 15.851563 L 41.003906 15.777344 L 41.007813 15.707031 L 41.015625 15.640625 L 41.019531 15.574219 L 41.027344 15.507813 L 41.042969 15.382813 L 41.078125 15.207031 L 41.089844 15.152344 L 41.105469 15.097656 L 41.136719 14.996094 L 41.152344 14.949219 L 41.191406 14.855469 L 41.210938 14.8125 L 41.257813 14.726563 L 41.277344 14.6875 L 41.304688 14.648438 L 41.328125 14.609375 L 41.382813 14.539063 L 41.4375 14.476563 L 41.5 14.414063 L 41.5625 14.359375 L 41.597656 14.332031 L 41.703125 14.261719 L 41.742188 14.242188 L 41.777344 14.222656 L 41.816406 14.199219 L 41.859375 14.183594 L 41.898438 14.164063 L 41.984375 14.132813 L 42.027344 14.121094 L 42.070313 14.105469 L 42.113281 14.09375 L 42.207031 14.070313 L 42.253906 14.0625 L 42.304688 14.054688 L 42.351563 14.042969 L 42.402344 14.035156 L 42.453125 14.03125 L 42.503906 14.023438 L 42.554688 14.019531 L 42.660156 14.011719 L 42.773438 14.003906 L 42.882813 14 L 44 14 L 44 9 L 30 9 L 25 25.851563 L 20 9 Z M 29.832031 33 L 31 33 L 31 29 Z M 17 33 L 18.167969 33 L 17 29 Z"
      />
    </svg>